<?xml version="1.0" encoding="UTF-8" ?>
<!DOCTYPE svg PUBLIC "-//W3C//DTD SVG 1.1//EN" "http://www.w3.org/Graphics/SVG/1.1/DTD/svg11.dtd">
<svg width="256pt" height="294pt" viewBox="0 0 256 294" version="1.1" xmlns="http://www.w3.org/2000/svg">
<g id="#571667fe">
<path fill="#571667" opacity="1.00" d=" M 119.61 0.00 L 126.33 0.00 C 144.27 0.81 161.79 8.77 174.01 21.95 C 185.91 34.50 192.78 51.68 192.80 68.97 C 192.81 116.26 192.81 163.55 192.80 210.84 C 146.31 210.89 99.83 210.83 53.34 210.86 C 53.36 163.58 53.33 116.30 53.35 69.01 C 53.42 47.95 63.73 27.21 80.49 14.45 C 91.66 5.77 105.51 0.76 119.61 0.00 M 107.02 6.83 C 91.63 10.55 78.18 20.50 69.13 33.38 C 78.75 32.90 87.53 27.83 94.53 21.49 C 105.33 28.40 118.04 32.75 130.96 32.34 C 143.26 32.06 155.28 27.54 164.95 19.99 C 149.18 6.73 126.98 1.50 107.02 6.83 M 144.91 32.65 C 128.06 37.40 109.35 33.91 94.81 24.35 C 87.36 31.38 77.49 35.43 67.33 36.27 C 61.70 46.24 58.23 57.51 58.24 69.02 C 58.24 114.74 58.08 160.47 58.27 206.20 C 100.86 206.08 143.46 206.20 186.05 206.15 C 186.61 206.00 187.75 205.70 188.31 205.54 C 188.13 193.83 188.17 182.11 188.24 170.39 C 180.16 175.52 170.62 178.39 161.02 177.90 C 149.59 177.95 138.74 172.22 131.06 163.99 C 122.30 170.04 111.60 173.08 100.97 172.70 C 89.46 173.07 78.13 168.10 70.03 160.03 C 68.81 158.73 67.18 157.42 67.40 155.45 C 73.34 155.47 79.45 154.75 84.72 151.84 C 90.85 148.98 95.54 143.97 99.92 138.97 C 103.34 135.02 107.12 131.42 110.83 127.75 C 95.49 128.44 80.42 118.69 74.53 104.56 C 71.33 97.88 70.80 90.26 71.69 83.00 C 73.33 71.37 80.74 60.69 91.04 55.04 C 99.79 49.96 110.63 48.61 120.38 51.34 C 128.92 53.52 136.45 58.92 141.66 65.99 C 130.84 58.64 115.46 58.05 104.68 65.75 C 94.57 72.62 89.96 86.46 94.11 97.98 C 97.06 107.36 105.35 114.55 114.84 116.78 C 124.05 119.19 133.85 117.00 141.82 112.00 C 140.19 113.90 138.47 115.72 136.68 117.47 C 141.66 117.78 146.52 119.06 151.15 120.89 C 152.46 112.05 156.70 103.34 164.00 97.93 C 170.88 92.73 179.74 91.18 188.19 91.21 C 187.98 82.14 188.67 73.03 187.73 63.99 C 186.53 48.23 179.06 33.09 167.52 22.33 C 167.16 22.30 166.44 22.23 166.08 22.20 C 159.72 26.89 152.63 30.76 144.91 32.65 M 165.67 99.73 C 158.56 104.93 154.55 113.50 153.44 122.08 C 154.38 124.50 156.43 126.43 156.96 129.05 C 158.69 134.53 156.89 140.82 152.60 144.63 C 147.13 149.68 138.43 151.83 131.58 148.46 C 125.48 145.08 126.26 135.39 132.02 132.08 C 132.97 131.09 134.95 131.00 134.91 132.78 C 133.36 134.45 130.91 135.36 130.30 137.79 C 128.66 140.90 130.00 145.20 133.31 146.55 C 141.21 149.73 151.47 145.49 154.55 137.46 C 156.02 132.84 154.72 127.19 151.02 123.96 C 146.62 121.08 141.20 120.05 136.00 120.24 C 125.61 119.99 116.27 125.92 109.03 132.86 C 102.80 138.67 98.05 146.02 90.98 150.92 C 85.26 155.17 78.24 157.35 71.19 157.94 C 74.92 161.25 78.80 164.52 83.43 166.51 C 95.54 172.46 110.09 171.32 122.28 166.21 C 125.69 164.86 128.36 162.16 131.78 160.85 C 137.62 168.31 146.42 173.33 155.66 175.16 C 166.96 176.81 179.13 174.34 188.18 167.18 C 188.22 142.70 188.24 118.22 188.17 93.74 C 180.35 93.61 172.11 95.03 165.67 99.73 Z" />
<path fill="#571667" opacity="1.00" d=" M 160.25 71.00 C 164.72 69.92 168.33 66.38 169.11 61.78 C 169.92 66.42 173.51 70.00 178.07 71.03 C 173.57 71.75 169.93 75.25 169.22 79.77 C 168.02 75.50 164.84 71.67 160.25 71.00 Z" />
<path fill="#571667" opacity="1.00" d=" M 117.08 189.86 C 120.14 189.21 122.37 186.96 123.05 183.93 C 124.19 186.80 126.21 189.72 129.65 189.77 C 126.61 190.68 123.97 192.72 123.19 195.95 C 122.18 193.05 119.99 190.86 117.08 189.86 Z" />
<path fill="#571667" opacity="1.00" d=" M 0.00 215.95 C 3.05 218.09 2.53 222.44 5.10 224.96 C 7.21 227.33 11.86 226.80 12.14 230.70 C 9.91 230.75 7.67 230.78 5.43 230.79 C 5.30 238.20 5.38 245.61 5.35 253.02 C 5.53 254.84 5.05 257.39 7.10 258.31 C 9.55 258.73 11.56 256.91 13.69 256.06 C 13.65 257.36 14.14 258.94 12.75 259.73 C 10.40 261.89 7.30 263.71 3.99 263.37 C 1.25 262.98 0.32 260.04 0.00 257.69 L 0.00 215.95 Z" />
<path fill="#571667" opacity="1.00" d=" M 70.36 220.24 C 73.14 218.66 77.47 214.65 80.32 217.75 C 80.56 225.24 80.24 232.74 80.47 240.23 C 82.94 236.59 86.10 232.36 90.99 232.41 C 95.66 232.00 99.77 236.45 99.02 241.06 C 98.57 245.50 94.66 248.71 90.43 249.41 C 93.82 254.22 94.98 260.03 96.44 265.60 C 97.74 270.93 103.73 275.03 109.11 272.88 C 110.70 271.67 111.13 274.23 110.11 274.89 C 104.81 278.11 97.59 275.85 94.16 270.96 C 91.00 266.55 91.23 260.80 88.97 255.99 C 87.48 252.91 86.04 249.20 82.52 247.99 C 82.51 247.56 82.49 246.69 82.49 246.26 C 85.43 246.54 88.85 247.44 91.39 245.41 C 94.32 243.43 94.78 238.00 91.12 236.55 C 88.01 235.96 84.97 237.76 83.37 240.37 C 80.22 245.29 80.05 251.47 80.61 257.11 C 80.85 259.00 83.11 260.42 82.39 262.43 C 78.92 262.50 75.44 262.67 71.99 262.27 L 71.27 260.82 C 72.35 260.36 73.43 259.91 74.51 259.47 C 75.57 255.38 75.15 251.15 75.20 246.99 C 75.21 239.66 75.21 232.32 75.23 224.99 C 75.23 223.79 74.98 222.66 74.45 221.58 C 72.91 221.66 71.24 221.78 70.36 220.24 Z" />
<path fill="#571667" opacity="1.00" d=" M 152.18 220.97 C 152.20 219.27 152.00 217.47 152.93 215.95 C 155.15 218.74 154.79 222.90 157.67 225.26 C 159.75 227.49 164.40 226.68 164.10 230.73 C 161.94 230.76 159.79 230.79 157.63 230.79 C 157.50 238.19 157.62 245.59 157.56 252.99 C 157.67 254.78 157.29 257.09 159.05 258.24 C 161.47 258.96 163.42 257.01 165.55 256.22 C 165.82 256.69 166.35 257.61 166.61 258.07 C 163.94 261.03 160.20 263.88 155.97 263.34 C 153.18 262.75 152.21 259.59 152.26 257.08 C 152.14 245.04 152.30 233.00 152.18 220.97 Z" />
<path fill="#571667" opacity="1.00" d=" M 192.92 221.55 C 193.24 217.58 198.36 216.96 201.48 216.40 C 202.48 218.82 202.21 221.47 202.22 224.03 C 202.18 234.34 202.24 244.66 202.18 254.98 C 202.33 256.61 201.65 259.06 203.87 259.51 C 204.74 259.19 206.48 258.54 207.35 258.22 C 208.67 262.95 197.78 266.04 197.17 259.97 C 196.36 247.27 197.19 234.47 196.75 221.73 C 195.47 221.66 194.20 221.60 192.92 221.55 Z" />
<path fill="#571667" opacity="1.00" d=" M 21.78 234.74 C 26.10 233.27 31.80 233.39 35.09 236.95 C 37.50 240.32 34.46 245.78 30.12 244.32 C 30.47 242.42 31.24 240.36 30.37 238.49 C 28.11 234.90 20.94 236.41 21.49 241.06 C 21.19 242.56 22.61 243.54 23.62 244.34 C 27.29 246.78 32.00 247.56 35.14 250.81 C 38.13 254.10 36.45 259.83 32.59 261.69 C 26.81 264.89 16.71 263.74 15.53 255.97 C 16.36 253.20 18.73 251.50 21.65 251.76 C 21.56 254.21 20.25 257.62 22.77 259.30 C 25.68 261.85 31.64 260.33 31.55 256.02 C 31.82 253.56 29.14 252.45 27.37 251.50 C 23.58 249.60 18.65 248.32 16.95 243.96 C 15.44 240.14 18.04 235.91 21.78 234.74 Z" />
<path fill="#571667" opacity="1.00" d=" M 173.71 235.77 C 179.05 230.57 189.13 233.51 190.75 240.82 C 192.46 249.38 189.38 258.70 193.19 266.89 C 195.33 271.98 201.73 274.69 206.86 272.68 C 207.96 272.07 208.17 274.74 206.97 274.80 C 201.93 278.08 194.98 276.15 191.34 271.67 C 188.00 268.03 187.13 262.99 186.06 258.35 C 183.96 261.76 180.09 264.28 175.96 263.51 C 171.61 263.34 167.75 259.40 168.21 254.97 C 168.11 249.42 173.81 245.34 179.06 245.83 C 181.44 246.02 185.65 246.44 184.69 249.81 C 182.13 249.07 179.27 248.45 176.79 249.78 C 173.48 251.24 172.03 256.53 175.40 258.73 C 179.31 261.53 185.02 258.32 186.26 254.14 C 186.42 250.74 186.42 247.33 186.24 243.94 C 185.94 240.00 181.89 236.84 177.99 237.53 C 175.18 238.00 173.22 240.27 171.73 242.52 C 168.49 240.81 172.00 237.29 173.71 235.77 Z" />
<path fill="#571667" opacity="1.00" d=" M 209.87 240.96 C 213.04 234.59 221.69 232.14 227.97 235.10 C 233.02 237.76 233.07 245.49 228.95 248.99 C 225.62 252.00 220.46 252.23 216.46 250.55 C 214.89 250.21 215.42 248.70 215.57 247.58 C 218.49 248.69 222.23 249.03 224.64 246.68 C 227.65 244.34 227.38 238.84 223.83 237.16 C 220.13 235.30 215.81 238.22 214.85 241.94 C 213.23 247.11 212.96 253.77 217.02 257.89 C 221.08 261.15 226.79 259.29 230.47 256.37 C 232.05 255.62 232.10 257.55 231.63 258.56 C 226.82 264.33 216.78 265.15 211.63 259.40 C 207.33 254.43 206.98 246.71 209.87 240.96 Z" />
<path fill="#571667" opacity="1.00" d=" M 236.90 237.91 C 240.41 233.17 247.64 232.83 252.56 235.40 C 255.37 236.74 256.23 240.82 253.99 243.05 C 252.87 244.55 250.89 244.30 249.26 244.52 C 249.58 242.76 250.45 240.98 250.04 239.17 C 248.39 235.53 242.50 235.66 240.88 239.24 C 239.76 241.67 241.90 244.04 243.98 245.02 C 248.20 247.40 253.96 248.39 256.00 253.38 L 256.00 256.09 C 254.80 262.10 247.75 264.06 242.44 263.12 C 238.92 262.63 234.80 260.04 235.25 256.00 C 235.00 252.95 238.31 251.85 240.77 251.66 C 240.64 254.15 239.39 257.34 241.86 259.12 C 245.09 262.57 252.62 259.44 250.50 254.46 C 247.75 250.85 242.68 250.44 239.21 247.72 C 236.01 245.75 234.53 241.06 236.90 237.91 Z" />
<path fill="#571667" opacity="1.00" d=" M 37.88 238.60 C 38.33 234.82 43.47 233.55 46.62 234.43 C 47.51 241.50 46.27 248.71 47.27 255.78 C 48.15 260.03 54.09 260.67 56.80 257.80 C 60.65 254.05 60.38 248.16 60.17 243.21 C 60.17 240.13 58.75 237.39 57.43 234.70 C 59.87 234.40 62.32 234.22 64.78 234.08 C 64.79 242.19 64.88 250.30 64.72 258.41 C 66.21 259.69 68.02 259.06 69.59 258.28 C 70.48 262.53 63.84 264.55 60.85 262.27 C 60.43 260.95 60.01 259.63 59.59 258.31 C 56.26 264.41 45.49 265.47 42.60 258.50 C 40.73 252.10 42.41 245.29 41.56 238.74 C 40.64 238.71 38.80 238.64 37.88 238.60 Z" />
<path fill="#571667" opacity="1.00" d=" M 102.52 238.89 C 103.18 234.65 108.54 233.99 112.05 234.13 C 112.85 241.42 111.46 248.86 112.84 256.07 C 114.73 261.18 122.36 259.77 124.42 255.48 C 127.55 248.97 126.52 240.95 123.17 234.70 C 125.85 234.42 128.53 234.26 131.22 234.19 C 131.21 243.46 131.20 252.72 131.23 261.99 C 131.24 268.21 130.31 274.62 127.14 280.07 C 123.21 287.57 115.63 293.03 107.17 294.00 L 102.08 294.00 C 94.85 293.11 87.71 289.75 82.97 284.15 C 80.91 281.73 81.70 278.52 82.82 275.89 C 84.38 278.40 85.75 281.08 87.80 283.26 C 93.34 289.10 102.03 292.08 109.93 290.02 C 116.80 288.09 122.12 282.24 124.35 275.58 C 126.35 270.01 125.47 264.00 125.70 258.21 C 123.44 260.86 120.44 263.07 116.85 263.29 C 112.56 263.99 108.04 261.16 107.22 256.82 C 106.37 251.02 107.08 245.12 106.81 239.29 C 105.38 239.15 103.95 239.02 102.52 238.89 Z" />
</g>
<g id="#fefefcff">
<path fill="#fefefc" opacity="1.00" d=" M 107.02 6.83 C 126.98 1.50 149.18 6.73 164.95 19.99 C 155.28 27.54 143.26 32.06 130.96 32.34 C 118.04 32.75 105.33 28.40 94.53 21.49 C 87.53 27.83 78.75 32.90 69.13 33.38 C 78.18 20.50 91.63 10.55 107.02 6.83 Z" />
<path fill="#fefefc" opacity="1.00" d=" M 165.67 99.73 C 172.11 95.03 180.35 93.61 188.17 93.74 C 188.24 118.22 188.22 142.70 188.18 167.18 C 179.13 174.34 166.96 176.81 155.66 175.16 C 146.42 173.33 137.62 168.31 131.78 160.85 C 128.36 162.16 125.69 164.86 122.28 166.21 C 110.09 171.32 95.54 172.46 83.43 166.51 C 78.80 164.52 74.92 161.25 71.19 157.94 C 78.24 157.35 85.26 155.17 90.98 150.92 C 98.05 146.02 102.80 138.67 109.03 132.86 C 116.27 125.92 125.61 119.99 136.00 120.24 C 141.20 120.05 146.62 121.08 151.02 123.96 C 154.72 127.19 156.02 132.84 154.55 137.46 C 151.47 145.49 141.21 149.73 133.31 146.55 C 130.00 145.20 128.66 140.90 130.30 137.79 C 130.91 135.36 133.36 134.45 134.91 132.78 C 134.95 131.00 132.97 131.09 132.02 132.08 C 126.26 135.39 125.48 145.08 131.58 148.46 C 138.43 151.83 147.13 149.68 152.60 144.63 C 156.89 140.82 158.69 134.53 156.96 129.05 C 156.43 126.43 154.38 124.50 153.44 122.08 C 154.55 113.50 158.56 104.93 165.67 99.73 Z" />
</g>
<g id="#ecc8dfff">
<path fill="#ecc8df" opacity="1.00" d=" M 144.91 32.65 C 152.63 30.76 159.72 26.89 166.08 22.20 C 166.44 22.23 167.16 22.30 167.52 22.33 C 179.06 33.09 186.53 48.23 187.73 63.99 C 188.67 73.03 187.98 82.14 188.19 91.21 C 179.74 91.18 170.88 92.73 164.00 97.93 C 156.70 103.34 152.46 112.05 151.15 120.89 C 146.52 119.06 141.66 117.78 136.68 117.47 C 138.47 115.72 140.19 113.90 141.82 112.00 C 133.85 117.00 124.05 119.19 114.84 116.78 C 105.35 114.55 97.06 107.36 94.11 97.98 C 89.96 86.46 94.57 72.62 104.68 65.75 C 115.46 58.05 130.84 58.64 141.66 65.99 C 136.45 58.92 128.92 53.52 120.38 51.34 C 110.63 48.61 99.79 49.96 91.04 55.04 C 80.74 60.69 73.33 71.37 71.69 83.00 C 70.80 90.26 71.33 97.88 74.53 104.56 C 80.42 118.69 95.49 128.44 110.83 127.75 C 107.12 131.42 103.34 135.02 99.92 138.97 C 95.54 143.97 90.85 148.98 84.72 151.84 C 79.45 154.75 73.34 155.47 67.40 155.45 C 67.18 157.42 68.81 158.73 70.03 160.03 C 78.13 168.10 89.46 173.07 100.97 172.70 C 111.60 173.08 122.30 170.04 131.06 163.99 C 138.74 172.22 149.59 177.95 161.02 177.90 C 170.62 178.39 180.16 175.52 188.24 170.39 C 188.17 182.11 188.13 193.83 188.31 205.54 C 187.75 205.70 186.61 206.00 186.05 206.15 C 143.46 206.20 100.86 206.08 58.27 206.20 C 58.08 160.47 58.24 114.74 58.24 69.02 C 58.23 57.51 61.70 46.24 67.33 36.27 C 77.49 35.43 87.36 31.38 94.81 24.35 C 109.35 33.91 128.06 37.40 144.91 32.65 M 160.25 71.00 C 164.84 71.67 168.02 75.50 169.22 79.77 C 169.93 75.25 173.57 71.75 178.07 71.03 C 173.51 70.00 169.92 66.42 169.11 61.78 C 168.33 66.38 164.72 69.92 160.25 71.00 M 117.08 189.86 C 119.99 190.86 122.18 193.05 123.19 195.95 C 123.97 192.72 126.61 190.68 129.65 189.77 C 126.21 189.72 124.19 186.80 123.05 183.93 C 122.37 186.96 120.14 189.21 117.08 189.86 Z" />
</g>
</svg>
