<?xml version="1.0" encoding="UTF-8" ?>
<!DOCTYPE svg PUBLIC "-//W3C//DTD SVG 1.1//EN" "http://www.w3.org/Graphics/SVG/1.1/DTD/svg11.dtd">
<svg width="960pt" height="960pt" viewBox="0 0 960 960" version="1.1" xmlns="http://www.w3.org/2000/svg">
<g id="#4130456e">
<path fill="#413045" opacity="0.43" d=" M 452.70 0.00 L 471.65 0.00 L 470.04 0.48 C 464.82 0.86 459.59 1.15 454.37 0.94 L 452.70 0.00 Z" />
<path fill="#413045" opacity="0.43" d=" M 488.03 0.00 L 505.40 0.00 L 507.10 0.91 C 501.35 1.15 495.58 0.89 489.84 0.50 L 488.03 0.00 Z" />
</g>
<g id="#5e3667c3">
<path fill="#5e3667" opacity="0.76" d=" M 471.65 0.00 L 488.03 0.00 L 489.84 0.50 C 483.26 1.21 476.61 1.25 470.04 0.48 L 471.65 0.00 Z" />
</g>
<g id="#47314c7d">
<path fill="#47314c" opacity="0.49" d=" M 439.40 1.86 C 442.71 1.18 446.08 0.93 449.45 1.13 C 446.14 1.77 442.77 2.01 439.40 1.86 Z" />
</g>
<g id="#581668ff">
<path fill="#581668" opacity="1.00" d=" M 449.45 1.13 C 451.08 1.04 452.72 0.98 454.37 0.94 C 459.59 1.15 464.82 0.86 470.04 0.48 C 476.61 1.25 483.26 1.21 489.84 0.50 C 495.58 0.89 501.35 1.15 507.10 0.91 C 507.74 0.96 509.00 1.05 509.63 1.10 C 513.51 1.75 517.44 2.07 521.39 1.94 C 521.69 1.97 522.28 2.04 522.58 2.07 C 525.54 2.67 528.56 2.93 531.59 2.90 C 532.14 2.97 533.24 3.10 533.79 3.16 C 535.71 4.35 538.00 4.55 540.15 3.90 C 540.55 3.95 541.35 4.06 541.75 4.11 C 543.36 5.31 545.40 5.54 547.30 4.89 C 547.67 4.94 548.42 5.03 548.79 5.08 C 550.36 6.32 552.39 6.56 554.27 5.92 C 554.64 5.96 555.38 6.04 555.75 6.09 C 556.96 7.28 558.70 7.49 560.27 6.92 C 560.64 6.96 561.39 7.03 561.76 7.07 C 562.93 8.26 564.63 8.50 566.19 7.98 C 566.59 8.02 567.38 8.09 567.77 8.12 C 568.73 9.21 569.88 9.46 571.23 8.89 C 571.63 8.94 572.43 9.05 572.83 9.11 C 573.78 10.20 574.93 10.47 576.29 9.91 C 576.66 9.96 577.40 10.06 577.78 10.11 C 578.73 11.21 579.88 11.46 581.23 10.88 C 651.47 25.81 718.11 57.11 774.72 101.27 C 833.12 146.75 880.97 205.81 912.87 272.63 C 912.50 274.61 913.35 276.52 915.18 277.44 C 929.57 308.27 940.70 340.64 948.10 373.85 C 947.45 375.31 947.78 376.39 949.08 377.09 L 948.92 377.88 C 948.30 379.39 948.84 381.04 950.00 382.14 L 949.84 382.95 C 949.28 384.43 949.98 385.98 950.99 387.10 C 951.03 387.48 951.12 388.25 951.16 388.63 C 950.54 389.96 950.77 391.12 951.87 392.11 C 951.93 392.51 952.04 393.32 952.09 393.72 C 951.45 395.26 951.69 397.02 952.98 398.18 L 952.98 398.83 C 952.50 400.38 952.73 402.07 953.90 403.28 C 953.96 403.88 954.08 405.07 954.14 405.67 C 953.50 407.21 953.68 408.97 954.87 410.22 C 954.92 410.60 955.02 411.37 955.06 411.76 C 954.45 413.62 954.67 415.64 955.88 417.24 C 955.95 417.85 956.08 419.09 956.15 419.71 C 955.47 421.58 955.66 423.64 956.83 425.29 C 956.90 425.82 957.02 426.88 957.08 427.41 C 957.07 430.42 957.33 433.43 957.94 436.39 C 957.97 436.67 958.04 437.24 958.07 437.53 C 957.96 441.16 958.23 444.78 958.90 448.35 C 959.00 450.21 959.11 452.06 959.25 453.92 C 958.81 459.34 958.99 464.79 959.59 470.19 C 958.92 476.33 958.71 482.55 959.52 488.68 C 959.24 494.40 958.77 500.13 959.12 505.86 C 959.13 507.78 959.04 509.71 958.93 511.64 C 958.22 514.94 957.96 518.30 958.17 521.68 C 958.12 522.17 958.01 523.15 957.96 523.64 C 957.33 526.87 957.03 530.15 956.99 533.45 L 956.92 533.97 C 955.54 535.82 955.32 538.16 956.19 540.29 C 956.11 540.91 955.96 542.15 955.89 542.77 C 954.67 544.36 954.44 546.39 955.10 548.27 C 955.05 548.65 954.96 549.39 954.91 549.76 C 953.69 551.32 953.43 553.33 954.05 555.20 C 953.98 555.83 953.83 557.09 953.75 557.72 C 952.64 558.82 952.52 559.96 953.40 561.16 L 952.89 561.84 C 951.64 563.02 951.48 564.81 952.12 566.35 C 952.09 566.71 952.01 567.44 951.97 567.81 C 950.72 568.94 950.46 570.65 951.01 572.21 L 951.04 572.89 C 949.73 573.96 949.40 575.67 949.98 577.23 L 950.02 577.95 C 949.06 579.04 948.11 580.57 948.80 582.05 L 949.06 582.97 C 947.79 583.68 947.47 584.76 948.12 586.22 C 941.10 617.95 930.60 648.91 917.15 678.50 C 915.36 679.48 914.55 681.41 914.86 683.40 C 884.25 749.08 838.35 807.51 782.06 853.11 C 722.87 901.15 652.08 935.00 577.32 950.10 C 575.77 949.40 574.00 949.68 572.93 951.04 L 572.31 951.07 C 570.75 950.44 569.01 950.70 567.88 951.99 L 567.15 952.10 C 565.81 951.53 564.66 951.78 563.69 952.85 C 563.10 952.91 561.91 953.04 561.32 953.10 C 559.74 952.48 558.00 952.70 556.80 953.93 C 556.42 953.98 555.67 954.08 555.29 954.13 C 553.73 953.50 551.98 953.68 550.75 954.88 C 550.36 954.92 549.58 955.01 549.19 955.05 C 547.31 954.46 545.30 954.70 543.71 955.88 C 543.09 955.95 541.84 956.09 541.22 956.16 C 539.08 955.34 536.76 955.58 534.90 956.90 C 534.45 956.96 533.57 957.08 533.13 957.14 C 530.70 956.40 528.12 956.56 525.92 957.84 C 525.31 957.90 524.10 958.03 523.50 958.09 C 519.84 957.95 516.20 958.25 512.61 958.94 C 504.63 959.59 496.61 959.79 488.61 960.00 L 467.36 960.00 C 462.56 959.04 457.65 958.70 452.78 959.32 C 450.97 959.17 449.17 959.05 447.37 958.95 C 443.79 958.25 440.16 957.96 436.52 958.09 C 436.23 958.06 435.65 957.99 435.35 957.96 C 432.41 957.34 429.42 957.07 426.42 957.09 C 426.07 957.04 425.37 956.95 425.01 956.90 C 422.87 955.60 420.35 955.37 417.95 956.01 C 417.53 955.98 416.69 955.92 416.27 955.89 C 414.68 954.70 412.67 954.46 410.80 955.05 C 410.41 955.01 409.64 954.93 409.25 954.89 C 407.67 953.73 405.69 953.46 403.83 953.96 L 403.19 953.97 C 401.67 952.73 399.70 952.41 397.85 952.93 L 397.18 952.96 C 396.02 951.71 394.30 951.46 392.76 952.04 C 392.38 952.02 391.61 951.97 391.23 951.95 C 390.08 950.80 388.40 950.34 386.87 950.92 L 386.03 951.08 C 385.33 949.78 384.24 949.44 382.77 950.08 C 382.38 950.03 381.59 949.93 381.20 949.89 C 380.24 948.77 379.09 948.51 377.76 949.10 C 377.36 949.02 376.57 948.86 376.17 948.78 C 375.57 948.65 374.36 948.38 373.75 948.25 C 307.39 933.34 244.38 903.88 190.22 862.75 C 132.20 818.80 84.34 761.53 51.51 696.57 C 33.85 661.62 20.37 624.50 11.89 586.26 C 12.47 584.89 12.18 583.76 11.02 582.86 L 11.19 582.07 C 11.76 580.57 10.98 579.04 10.00 577.95 L 10.05 577.24 C 10.57 575.68 10.25 573.98 9.00 572.88 L 9.04 572.22 C 9.54 570.65 9.24 568.95 8.01 567.82 C 7.98 567.45 7.93 566.72 7.90 566.36 C 8.53 564.80 8.29 563.04 7.03 561.88 L 6.86 561.14 C 7.45 559.81 7.23 558.65 6.20 557.65 C 6.14 557.04 6.02 555.82 5.96 555.21 C 6.56 553.35 6.31 551.34 5.09 549.80 C 5.04 549.42 4.95 548.64 4.90 548.26 C 5.54 546.38 5.31 544.35 4.11 542.77 C 4.03 542.14 3.88 540.88 3.81 540.25 C 4.67 538.12 4.45 535.78 3.07 533.93 L 3.01 533.41 C 2.96 530.13 2.67 526.87 2.04 523.65 C 1.99 523.17 1.89 522.20 1.84 521.71 C 2.01 518.32 1.77 514.94 1.09 511.63 C 0.98 509.78 0.87 507.93 0.74 506.09 C 1.20 500.68 1.03 495.24 0.37 489.85 C 1.20 483.43 1.20 476.92 0.39 470.50 C 0.96 465.21 1.20 459.88 0.74 454.57 C 0.89 452.20 0.98 449.83 1.15 447.46 C 1.75 444.18 2.00 440.84 1.93 437.51 C 1.96 437.23 2.03 436.66 2.06 436.38 C 2.66 433.43 2.92 430.43 2.92 427.42 C 2.98 426.88 3.11 425.81 3.17 425.27 C 4.34 423.63 4.52 421.58 3.84 419.72 C 3.91 419.10 4.05 417.86 4.12 417.24 C 5.31 415.65 5.54 413.63 4.93 411.77 C 4.98 411.38 5.08 410.61 5.12 410.23 C 6.30 408.98 6.48 407.22 5.85 405.67 C 5.90 405.30 5.99 404.55 6.03 404.17 C 7.28 402.65 7.58 400.66 7.03 398.81 C 7.06 398.40 7.11 397.58 7.13 397.17 C 8.22 396.20 8.47 395.04 7.89 393.70 C 7.95 393.31 8.08 392.52 8.14 392.13 C 9.22 391.14 9.45 389.97 8.84 388.64 C 8.88 388.25 8.97 387.47 9.02 387.09 C 10.02 385.96 10.68 384.42 10.18 382.93 L 10.04 382.09 C 10.92 380.95 11.83 379.42 11.18 377.96 L 10.93 377.08 C 12.19 376.37 12.51 375.30 11.89 373.85 C 33.56 276.51 87.08 186.78 161.78 120.81 C 222.04 67.27 295.99 29.24 374.70 11.75 C 375.30 11.62 376.51 11.37 377.12 11.24 C 377.54 11.15 378.39 10.99 378.81 10.90 C 380.15 11.46 381.29 11.20 382.25 10.10 C 382.62 10.05 383.37 9.95 383.75 9.90 C 385.09 10.46 386.24 10.20 387.21 9.12 C 387.60 9.05 388.38 8.93 388.77 8.87 C 390.10 9.45 391.26 9.21 392.24 8.13 C 392.62 8.09 393.38 8.01 393.76 7.97 C 395.31 8.50 397.03 8.27 398.22 7.08 C 398.60 7.04 399.35 6.96 399.72 6.92 C 401.27 7.49 403.01 7.29 404.22 6.09 C 404.60 6.04 405.37 5.95 405.75 5.90 C 407.30 6.47 409.04 6.29 410.29 5.14 C 410.92 5.08 412.17 4.95 412.80 4.89 C 414.92 5.68 417.24 5.41 419.08 4.04 L 419.82 3.90 C 421.98 4.55 424.27 4.35 426.21 3.16 C 426.88 3.08 428.23 2.93 428.90 2.85 C 431.30 3.58 433.86 3.43 436.08 2.18 C 437.18 2.07 438.29 1.97 439.40 1.86 C 442.77 2.01 446.14 1.77 449.45 1.13 M 359.02 42.13 C 287.15 61.85 220.45 99.82 166.59 151.29 C 197.20 150.48 227.39 142.73 255.24 130.17 C 284.22 116.93 311.24 99.16 334.37 77.21 C 336.86 75.09 340.79 74.82 343.46 76.78 C 386.06 105.51 434.49 125.48 484.88 135.48 C 510.77 141.41 537.40 143.71 563.93 143.31 C 621.56 142.57 679.01 127.93 729.83 100.70 C 707.17 85.64 683.08 72.76 658.07 62.07 C 564.44 21.89 457.16 14.96 359.02 42.13 M 257.08 146.16 C 223.80 160.45 187.48 168.18 151.20 166.62 C 110.99 208.89 78.82 258.83 57.41 313.12 C 31.21 379.13 21.12 451.36 27.65 522.06 C 34.34 596.57 60.03 669.26 101.57 731.47 C 143.97 795.25 202.69 848.15 270.73 883.35 C 277.52 880.09 284.20 876.57 290.71 872.76 C 321.73 854.93 346.48 828.53 369.97 801.98 C 392.56 776.05 416.00 750.68 442.59 728.76 C 403.80 729.50 364.84 721.13 329.94 704.13 C 298.28 688.81 269.99 666.60 247.51 639.55 C 224.85 612.33 208.11 580.20 198.94 545.99 C 184.44 492.36 188.61 433.84 210.92 382.93 C 235.76 325.42 283.37 278.24 341.10 253.92 C 376.24 238.95 414.90 232.46 453.01 234.83 C 492.27 237.17 530.90 249.14 564.60 269.42 C 593.38 286.70 618.64 309.87 638.22 337.15 C 585.64 299.72 515.31 289.12 453.90 308.76 C 420.92 319.27 390.81 338.98 368.54 365.55 C 346.75 391.34 332.60 423.45 328.20 456.92 C 323.06 494.73 329.90 534.19 348.20 567.74 C 364.44 597.86 389.63 622.97 419.55 639.52 C 453.85 658.66 493.98 666.40 533.03 663.43 C 570.63 660.75 607.47 647.75 638.26 625.95 C 628.44 639.63 617.19 652.28 604.79 663.66 C 625.16 663.83 645.46 667.06 664.93 673.02 C 676.05 676.24 687.15 679.88 697.28 685.60 C 698.55 675.17 700.87 664.90 703.67 654.79 C 712.53 622.34 727.67 591.31 749.65 565.70 C 771.45 540.42 800.48 521.87 831.91 510.95 C 864.59 499.58 899.50 495.73 933.97 496.77 C 936.83 420.98 920.44 344.51 886.31 276.76 C 853.33 210.84 803.98 153.25 744.01 110.41 C 674.77 149.68 592.83 165.64 513.86 156.14 C 452.32 147.98 392.10 127.25 340.08 93.08 C 315.42 114.97 287.43 133.20 257.08 146.16 M 854.88 520.19 C 828.18 526.83 802.56 538.67 781.35 556.35 C 754.48 578.26 735.58 608.70 724.11 641.16 C 717.91 659.03 713.34 677.55 711.62 696.42 C 721.70 706.63 728.62 719.57 733.19 733.08 C 738.42 748.43 739.62 765.13 736.61 781.07 C 733.29 799.02 724.65 815.89 712.26 829.28 C 690.63 852.66 659.64 866.58 628.02 868.94 C 610.61 870.12 592.47 868.35 576.66 860.49 C 563.32 854.02 552.73 841.96 548.60 827.67 C 541.10 801.04 552.16 769.47 576.32 755.21 C 579.36 753.48 582.48 751.72 585.90 750.87 C 591.43 750.17 596.34 756.70 593.67 761.77 C 591.64 765.97 586.50 766.51 583.01 769.00 C 566.30 779.90 558.34 801.98 562.71 821.22 C 565.04 831.83 572.52 840.84 582.05 845.88 C 595.45 853.04 611.14 854.42 626.09 853.58 C 658.03 851.38 689.71 835.85 708.46 809.48 C 719.88 793.58 724.99 773.31 722.21 753.91 C 720.04 738.86 714.45 724.06 705.04 712.03 C 695.75 700.13 681.19 694.25 667.25 689.79 C 654.35 685.86 641.27 682.34 627.87 680.62 C 591.91 675.69 554.96 682.31 521.90 696.87 C 490.05 710.90 461.36 731.34 435.80 754.81 C 408.26 780.02 385.18 809.50 359.37 836.38 C 338.41 858.18 314.81 877.81 287.93 891.91 C 371.53 931.16 467.26 943.56 558.20 927.67 C 612.31 918.32 664.65 898.93 711.83 870.85 C 786.30 826.67 847.70 760.79 886.38 683.31 C 913.13 630.12 929.03 571.57 933.18 512.19 C 906.89 511.47 880.40 513.68 854.88 520.19 Z" />
<path fill="#581668" opacity="1.00" d=" M 811.49 304.65 C 812.00 332.00 832.78 356.73 858.55 364.63 C 863.44 366.17 868.54 366.87 873.63 367.42 C 841.22 368.62 812.74 397.24 811.20 429.56 C 809.58 397.25 781.06 368.37 748.54 367.51 C 766.84 366.25 784.31 357.20 795.92 343.01 C 805.10 332.29 810.17 318.61 811.49 304.65 Z" />
</g>
<g id="#442d497c">
<path fill="#442d49" opacity="0.49" d=" M 509.63 1.10 C 513.57 0.87 517.52 1.12 521.39 1.94 C 517.44 2.07 513.51 1.75 509.63 1.10 Z" />
</g>
<g id="#45314976">
<path fill="#453149" opacity="0.46" d=" M 428.90 2.85 C 431.10 1.58 433.66 1.46 436.08 2.18 C 433.86 3.43 431.30 3.58 428.90 2.85 Z" />
<path fill="#453149" opacity="0.46" d=" M 378.81 10.90 C 379.75 9.81 380.90 9.55 382.25 10.10 C 381.29 11.20 380.15 11.46 378.81 10.90 Z" />
<path fill="#453149" opacity="0.46" d=" M 577.78 10.11 C 579.10 9.56 580.25 9.81 581.23 10.88 C 579.88 11.46 578.73 11.21 577.78 10.11 Z" />
</g>
<g id="#47304d82">
<path fill="#47304d" opacity="0.51" d=" M 522.58 2.07 C 525.60 2.01 528.63 2.26 531.59 2.90 C 528.56 2.93 525.54 2.67 522.58 2.07 Z" />
</g>
<g id="#42304670">
<path fill="#423046" opacity="0.44" d=" M 419.82 3.90 C 421.74 2.65 424.05 2.43 426.21 3.16 C 424.27 4.35 421.98 4.55 419.82 3.90 Z" />
<path fill="#423046" opacity="0.44" d=" M 533.79 3.16 C 535.94 2.43 538.24 2.64 540.15 3.90 C 538.00 4.55 535.71 4.35 533.79 3.16 Z" />
</g>
<g id="#492e508e">
<path fill="#492e50" opacity="0.56" d=" M 412.80 4.89 C 414.69 3.72 416.93 3.52 419.08 4.04 C 417.24 5.41 414.92 5.68 412.80 4.89 Z" />
</g>
<g id="#46304b7d">
<path fill="#46304b" opacity="0.49" d=" M 541.75 4.11 C 543.63 3.51 545.67 3.70 547.30 4.89 C 545.40 5.54 543.36 5.31 541.75 4.11 Z" />
</g>
<g id="#4231456c">
<path fill="#423145" opacity="0.42" d=" M 405.75 5.90 C 406.97 4.71 408.73 4.53 410.29 5.14 C 409.04 6.29 407.30 6.47 405.75 5.90 Z" />
</g>
<g id="#46304b7f">
<path fill="#46304b" opacity="0.50" d=" M 548.79 5.08 C 550.66 4.50 552.68 4.71 554.27 5.92 C 552.39 6.56 550.36 6.32 548.79 5.08 Z" />
</g>
<g id="#46314c7b">
<path fill="#46314c" opacity="0.48" d=" M 399.72 6.92 C 400.92 5.74 402.66 5.52 404.22 6.09 C 403.01 7.29 401.27 7.49 399.72 6.92 Z" />
<path fill="#46314c" opacity="0.48" d=" M 555.75 6.09 C 557.30 5.52 559.05 5.74 560.27 6.92 C 558.70 7.49 556.96 7.28 555.75 6.09 Z" />
</g>
<g id="#43304876">
<path fill="#433048" opacity="0.46" d=" M 393.76 7.97 C 394.92 6.74 396.66 6.50 398.22 7.08 C 397.03 8.27 395.31 8.50 393.76 7.97 Z" />
<path fill="#433048" opacity="0.46" d=" M 561.76 7.07 C 563.29 6.49 565.04 6.74 566.19 7.98 C 564.63 8.50 562.93 8.26 561.76 7.07 Z" />
</g>
<g id="#44324a75">
<path fill="#44324a" opacity="0.46" d=" M 388.77 8.87 C 389.75 7.80 390.90 7.56 392.24 8.13 C 391.26 9.21 390.10 9.45 388.77 8.87 Z" />
</g>
<g id="#44324975">
<path fill="#443249" opacity="0.46" d=" M 567.77 8.12 C 569.10 7.56 570.25 7.81 571.23 8.89 C 569.88 9.46 568.73 9.21 567.77 8.12 Z" />
</g>
<g id="#49354d7d">
<path fill="#49354d" opacity="0.49" d=" M 383.75 9.90 C 384.71 8.82 385.86 8.56 387.21 9.12 C 386.24 10.20 385.09 10.46 383.75 9.90 Z" />
<path fill="#49354d" opacity="0.49" d=" M 572.83 9.11 C 574.17 8.56 575.32 8.82 576.29 9.91 C 574.93 10.47 573.78 10.20 572.83 9.11 Z" />
</g>
<g id="#4a36507e">
<path fill="#4a3650" opacity="0.49" d=" M 374.70 11.75 C 375.30 11.62 376.51 11.37 377.12 11.24 C 376.51 11.37 375.30 11.62 374.70 11.75 Z" />
</g>
<g id="#fffefdff">
<path fill="#fffefd" opacity="1.00" d=" M 359.02 42.13 C 457.16 14.96 564.44 21.89 658.07 62.07 C 683.08 72.76 707.17 85.64 729.83 100.70 C 679.01 127.93 621.56 142.57 563.93 143.31 C 537.40 143.71 510.77 141.41 484.88 135.48 C 434.49 125.48 386.06 105.51 343.46 76.78 C 340.79 74.82 336.86 75.09 334.37 77.21 C 311.24 99.16 284.22 116.93 255.24 130.17 C 227.39 142.73 197.20 150.48 166.59 151.29 C 220.45 99.82 287.15 61.85 359.02 42.13 Z" />
<path fill="#fffefd" opacity="1.00" d=" M 854.88 520.19 C 880.40 513.68 906.89 511.47 933.18 512.19 C 929.03 571.57 913.13 630.12 886.38 683.31 C 847.70 760.79 786.30 826.67 711.83 870.85 C 664.65 898.93 612.31 918.32 558.20 927.67 C 467.26 943.56 371.53 931.16 287.93 891.91 C 314.81 877.81 338.41 858.18 359.37 836.38 C 385.18 809.50 408.26 780.02 435.80 754.81 C 461.36 731.34 490.05 710.90 521.90 696.87 C 554.96 682.31 591.91 675.69 627.87 680.62 C 641.27 682.34 654.35 685.86 667.25 689.79 C 681.19 694.25 695.75 700.13 705.04 712.03 C 714.45 724.06 720.04 738.86 722.21 753.91 C 724.99 773.31 719.88 793.58 708.46 809.48 C 689.71 835.85 658.03 851.38 626.09 853.58 C 611.14 854.42 595.45 853.04 582.05 845.88 C 572.52 840.84 565.04 831.83 562.71 821.22 C 558.34 801.98 566.30 779.90 583.01 769.00 C 586.50 766.51 591.64 765.97 593.67 761.77 C 596.34 756.70 591.43 750.17 585.90 750.87 C 582.48 751.72 579.36 753.48 576.32 755.21 C 552.16 769.47 541.10 801.04 548.60 827.67 C 552.73 841.96 563.32 854.02 576.66 860.49 C 592.47 868.35 610.61 870.12 628.02 868.94 C 659.64 866.58 690.63 852.66 712.26 829.28 C 724.65 815.89 733.29 799.02 736.61 781.07 C 739.62 765.13 738.42 748.43 733.19 733.08 C 728.62 719.57 721.70 706.63 711.62 696.42 C 713.34 677.55 717.91 659.03 724.11 641.16 C 735.58 608.70 754.48 578.26 781.35 556.35 C 802.56 538.67 828.18 526.83 854.88 520.19 Z" />
</g>
<g id="#edc8e0ff">
<path fill="#edc8e0" opacity="1.00" d=" M 257.08 146.16 C 287.43 133.20 315.42 114.97 340.08 93.08 C 392.10 127.25 452.32 147.98 513.86 156.14 C 592.83 165.64 674.77 149.68 744.01 110.41 C 803.98 153.25 853.33 210.84 886.31 276.76 C 920.44 344.51 936.83 420.98 933.97 496.77 C 899.50 495.73 864.59 499.58 831.91 510.95 C 800.48 521.87 771.45 540.42 749.65 565.70 C 727.67 591.31 712.53 622.34 703.67 654.79 C 700.87 664.90 698.55 675.17 697.28 685.60 C 687.15 679.88 676.05 676.24 664.93 673.02 C 645.46 667.06 625.16 663.83 604.79 663.66 C 617.19 652.28 628.44 639.63 638.26 625.95 C 607.47 647.75 570.63 660.75 533.03 663.43 C 493.98 666.40 453.85 658.66 419.55 639.52 C 389.63 622.97 364.44 597.86 348.20 567.74 C 329.90 534.19 323.06 494.73 328.20 456.92 C 332.60 423.45 346.75 391.34 368.54 365.55 C 390.81 338.98 420.92 319.27 453.90 308.76 C 515.31 289.12 585.64 299.72 638.22 337.15 C 618.64 309.87 593.38 286.70 564.60 269.42 C 530.90 249.14 492.27 237.17 453.01 234.83 C 414.90 232.46 376.24 238.95 341.10 253.92 C 283.37 278.24 235.76 325.42 210.92 382.93 C 188.61 433.84 184.44 492.36 198.94 545.99 C 208.11 580.20 224.85 612.33 247.51 639.55 C 269.99 666.60 298.28 688.81 329.94 704.13 C 364.84 721.13 403.80 729.50 442.59 728.76 C 416.00 750.68 392.56 776.05 369.97 801.98 C 346.48 828.53 321.73 854.93 290.71 872.76 C 284.20 876.57 277.52 880.09 270.73 883.35 C 202.69 848.15 143.97 795.25 101.57 731.47 C 60.03 669.26 34.34 596.57 27.65 522.06 C 21.12 451.36 31.21 379.13 57.41 313.12 C 78.82 258.83 110.99 208.89 151.20 166.62 C 187.48 168.18 223.80 160.45 257.08 146.16 M 811.49 304.65 C 810.17 318.61 805.10 332.29 795.92 343.01 C 784.31 357.20 766.84 366.25 748.54 367.51 C 781.06 368.37 809.58 397.25 811.20 429.56 C 812.74 397.24 841.22 368.62 873.63 367.42 C 868.54 366.87 863.44 366.17 858.55 364.63 C 832.78 356.73 812.00 332.00 811.49 304.65 Z" />
</g>
<g id="#45264d96">
<path fill="#45264d" opacity="0.59" d=" M 912.87 272.63 C 914.24 273.88 915.07 275.56 915.18 277.44 C 913.35 276.52 912.50 274.61 912.87 272.63 Z" />
</g>
<g id="#45324a76">
<path fill="#45324a" opacity="0.46" d=" M 10.93 377.08 C 10.52 375.82 10.84 374.74 11.89 373.85 C 12.51 375.30 12.19 376.37 10.93 377.08 Z" />
<path fill="#45324a" opacity="0.46" d=" M 948.10 373.85 C 949.11 374.74 949.43 375.82 949.08 377.09 C 947.78 376.39 947.45 375.31 948.10 373.85 Z" />
</g>
<g id="#402c4471">
<path fill="#402c44" opacity="0.44" d=" M 10.04 382.09 C 9.61 380.67 9.53 378.61 11.18 377.96 C 11.83 379.42 10.92 380.95 10.04 382.09 Z" />
<path fill="#402c44" opacity="0.44" d=" M 948.92 377.88 C 950.14 378.93 950.59 380.61 950.00 382.14 C 948.84 381.04 948.30 379.39 948.92 377.88 Z" />
</g>
<g id="#432e4879">
<path fill="#432e48" opacity="0.47" d=" M 9.02 387.09 C 8.68 385.66 8.48 383.55 10.18 382.93 C 10.68 384.42 10.02 385.96 9.02 387.09 Z" />
<path fill="#432e48" opacity="0.47" d=" M 949.84 382.95 C 951.52 383.57 951.30 385.68 950.99 387.10 C 949.98 385.98 949.28 384.43 949.84 382.95 Z" />
<path fill="#432e48" opacity="0.47" d=" M 958.07 437.53 C 958.83 441.09 959.10 444.72 958.90 448.35 C 958.23 444.78 957.96 441.16 958.07 437.53 Z" />
</g>
<g id="#4c34538c">
<path fill="#4c3453" opacity="0.55" d=" M 8.14 392.13 C 7.56 390.79 7.79 389.63 8.84 388.64 C 9.45 389.97 9.22 391.14 8.14 392.13 Z" />
<path fill="#4c3453" opacity="0.55" d=" M 951.16 388.63 C 952.19 389.61 952.43 390.78 951.87 392.11 C 950.77 391.12 950.54 389.96 951.16 388.63 Z" />
</g>
<g id="#47344b76">
<path fill="#47344b" opacity="0.46" d=" M 7.13 397.17 C 6.58 395.83 6.83 394.67 7.89 393.70 C 8.47 395.04 8.22 396.20 7.13 397.17 Z" />
</g>
<g id="#4c32518d">
<path fill="#4c3251" opacity="0.55" d=" M 952.09 393.72 C 953.23 394.92 953.44 396.62 952.98 398.18 C 951.69 397.02 951.45 395.26 952.09 393.72 Z" />
</g>
<g id="#412b477d">
<path fill="#412b47" opacity="0.49" d=" M 6.03 404.17 C 5.46 402.31 5.70 400.28 7.03 398.81 C 7.58 400.66 7.28 402.65 6.03 404.17 Z" />
</g>
<g id="#3e2e4268">
<path fill="#3e2e42" opacity="0.41" d=" M 952.98 398.83 C 954.27 399.95 954.50 401.72 953.90 403.28 C 952.73 402.07 952.50 400.38 952.98 398.83 Z" />
</g>
<g id="#4b355083">
<path fill="#4b3550" opacity="0.51" d=" M 5.12 410.23 C 4.55 408.67 4.72 406.92 5.85 405.67 C 6.48 407.22 6.30 408.98 5.12 410.23 Z" />
<path fill="#4b3550" opacity="0.51" d=" M 954.14 405.67 C 955.26 406.91 955.44 408.66 954.87 410.22 C 953.68 408.97 953.50 407.21 954.14 405.67 Z" />
</g>
<g id="#43304773">
<path fill="#433047" opacity="0.45" d=" M 4.12 417.24 C 3.48 415.37 3.70 413.34 4.93 411.77 C 5.54 413.63 5.31 415.65 4.12 417.24 Z" />
<path fill="#433047" opacity="0.45" d=" M 955.06 411.76 C 956.29 413.33 956.51 415.36 955.88 417.24 C 954.67 415.64 954.45 413.62 955.06 411.76 Z" />
</g>
<g id="#48344c79">
<path fill="#48344c" opacity="0.47" d=" M 3.17 425.27 C 2.52 423.39 2.69 421.35 3.84 419.72 C 4.52 421.58 4.34 423.63 3.17 425.27 Z" />
<path fill="#48344c" opacity="0.47" d=" M 956.15 419.71 C 957.29 421.35 957.47 423.40 956.83 425.29 C 955.66 423.64 955.47 421.58 956.15 419.71 Z" />
</g>
<g id="#462f4c82">
<path fill="#462f4c" opacity="0.51" d=" M 2.06 436.38 C 2.01 433.37 2.28 430.37 2.92 427.42 C 2.92 430.43 2.66 433.43 2.06 436.38 Z" />
<path fill="#462f4c" opacity="0.51" d=" M 957.08 427.41 C 957.72 430.36 957.98 433.37 957.94 436.39 C 957.33 433.43 957.07 430.42 957.08 427.41 Z" />
</g>
<g id="#412f4670">
<path fill="#412f46" opacity="0.44" d=" M 1.15 447.46 C 0.93 444.12 1.20 440.78 1.93 437.51 C 2.00 440.84 1.75 444.18 1.15 447.46 Z" />
</g>
<g id="#50355693">
<path fill="#503556" opacity="0.58" d=" M 0.00 456.97 L 0.74 454.57 C 1.20 459.88 0.96 465.21 0.39 470.50 L 0.00 472.25 L 0.00 456.97 Z" />
<path fill="#503556" opacity="0.58" d=" M 959.25 453.92 L 960.00 455.66 L 960.00 471.67 L 959.59 470.19 C 958.99 464.79 958.81 459.34 959.25 453.92 Z" />
</g>
<g id="#4c1259de">
<path fill="#4c1259" opacity="0.87" d=" M 0.00 472.25 L 0.39 470.50 C 1.20 476.92 1.20 483.43 0.37 489.85 L 0.00 488.28 L 0.00 472.25 Z" />
<path fill="#4c1259" opacity="0.87" d=" M 959.59 470.19 L 960.00 471.67 L 960.00 490.32 L 959.52 488.68 C 958.71 482.55 958.92 476.33 959.59 470.19 Z" />
</g>
<g id="#50355795">
<path fill="#503557" opacity="0.58" d=" M 0.00 488.28 L 0.37 489.85 C 1.03 495.24 1.20 500.68 0.74 506.09 L 0.00 504.34 L 0.00 488.28 Z" />
<path fill="#503557" opacity="0.58" d=" M 959.52 488.68 L 960.00 490.32 L 960.00 504.84 L 959.12 505.86 C 958.77 500.13 959.24 494.40 959.52 488.68 Z" />
</g>
<g id="#49304f88">
<path fill="#49304f" opacity="0.53" d=" M 1.09 511.63 C 1.77 514.94 2.01 518.32 1.84 521.71 C 1.16 518.39 0.95 515.00 1.09 511.63 Z" />
<path fill="#49304f" opacity="0.53" d=" M 958.17 521.68 C 957.96 518.30 958.22 514.94 958.93 511.64 C 959.04 515.00 958.82 518.37 958.17 521.68 Z" />
</g>
<g id="#422c477b">
<path fill="#422c47" opacity="0.48" d=" M 2.04 523.65 C 2.67 526.87 2.96 530.13 3.01 533.41 C 2.25 530.21 1.96 526.93 2.04 523.65 Z" />
<path fill="#422c47" opacity="0.48" d=" M 956.99 533.45 C 957.03 530.15 957.33 526.87 957.96 523.64 C 958.03 526.93 957.74 530.23 956.99 533.45 Z" />
</g>
<g id="#4a2f508e">
<path fill="#4a2f50" opacity="0.56" d=" M 3.07 533.93 C 4.45 535.78 4.67 538.12 3.81 540.25 C 2.70 538.30 2.56 536.07 3.07 533.93 Z" />
<path fill="#4a2f50" opacity="0.56" d=" M 956.19 540.29 C 955.32 538.16 955.54 535.82 956.92 533.97 C 957.43 536.11 957.29 538.35 956.19 540.29 Z" />
</g>
<g id="#45304b7a">
<path fill="#45304b" opacity="0.48" d=" M 4.11 542.77 C 5.31 544.35 5.54 546.38 4.90 548.26 C 3.69 546.66 3.49 544.63 4.11 542.77 Z" />
<path fill="#45304b" opacity="0.48" d=" M 955.10 548.27 C 954.44 546.39 954.67 544.36 955.89 542.77 C 956.49 544.64 956.29 546.67 955.10 548.27 Z" />
</g>
<g id="#442f4979">
<path fill="#442f49" opacity="0.47" d=" M 5.09 549.80 C 6.31 551.34 6.56 553.35 5.96 555.21 C 4.70 553.67 4.47 551.64 5.09 549.80 Z" />
</g>
<g id="#442f4978">
<path fill="#442f49" opacity="0.47" d=" M 954.05 555.20 C 953.43 553.33 953.69 551.32 954.91 549.76 C 955.52 551.61 955.30 553.65 954.05 555.20 Z" />
</g>
<g id="#3b2f3e5c">
<path fill="#3b2f3e" opacity="0.36" d=" M 6.20 557.65 C 7.23 558.65 7.45 559.81 6.86 561.14 C 5.80 560.14 5.57 558.97 6.20 557.65 Z" />
<path fill="#3b2f3e" opacity="0.36" d=" M 953.40 561.16 C 952.52 559.96 952.64 558.82 953.75 557.72 C 954.36 558.96 954.25 560.11 953.40 561.16 Z" />
</g>
<g id="#4c315396">
<path fill="#4c3153" opacity="0.59" d=" M 7.03 561.88 C 8.29 563.04 8.53 564.80 7.90 566.36 C 6.76 565.13 6.54 563.42 7.03 561.88 Z" />
<path fill="#4c3153" opacity="0.59" d=" M 952.12 566.35 C 951.48 564.81 951.64 563.02 952.89 561.84 C 953.46 563.38 953.20 565.09 952.12 566.35 Z" />
</g>
<g id="#452f4b7e">
<path fill="#452f4b" opacity="0.49" d=" M 8.01 567.82 C 9.24 568.95 9.54 570.65 9.04 572.22 C 7.77 571.10 7.49 569.36 8.01 567.82 Z" />
<path fill="#452f4b" opacity="0.49" d=" M 951.01 572.21 C 950.46 570.65 950.72 568.94 951.97 567.81 C 952.49 569.35 952.23 571.07 951.01 572.21 Z" />
</g>
<g id="#48304d85">
<path fill="#48304d" opacity="0.52" d=" M 9.00 572.88 C 10.25 573.98 10.57 575.68 10.05 577.24 C 8.80 576.13 8.48 574.42 9.00 572.88 Z" />
</g>
<g id="#48304d84">
<path fill="#48304d" opacity="0.52" d=" M 949.98 577.23 C 949.40 575.67 949.73 573.96 951.04 572.89 C 951.50 574.43 951.18 576.11 949.98 577.23 Z" />
</g>
<g id="#442d497d">
<path fill="#442d49" opacity="0.49" d=" M 10.00 577.95 C 10.98 579.04 11.76 580.57 11.19 582.07 C 9.51 581.45 9.66 579.35 10.00 577.95 Z" />
</g>
<g id="#432c487d">
<path fill="#432c48" opacity="0.49" d=" M 948.80 582.05 C 948.11 580.57 949.06 579.04 950.02 577.95 C 950.31 579.35 950.45 581.43 948.80 582.05 Z" />
</g>
<g id="#4a324e83">
<path fill="#4a324e" opacity="0.51" d=" M 11.02 582.86 C 12.18 583.76 12.47 584.89 11.89 586.26 C 10.82 585.31 10.53 584.18 11.02 582.86 Z" />
<path fill="#4a324e" opacity="0.51" d=" M 948.12 586.22 C 947.47 584.76 947.79 583.68 949.06 582.97 C 949.46 584.21 949.14 585.30 948.12 586.22 Z" />
</g>
<g id="#45264b90">
<path fill="#45264b" opacity="0.56" d=" M 914.86 683.40 C 914.55 681.41 915.36 679.48 917.15 678.50 C 917.10 680.39 916.25 682.12 914.86 683.40 Z" />
</g>
<g id="#4a364e7c">
<path fill="#4a364e" opacity="0.49" d=" M 373.75 948.25 C 374.36 948.38 375.57 948.65 376.17 948.78 C 375.57 948.65 374.36 948.38 373.75 948.25 Z" />
</g>
<g id="#45314977">
<path fill="#453149" opacity="0.47" d=" M 377.76 949.10 C 379.09 948.51 380.24 948.77 381.20 949.89 C 379.85 950.43 378.71 950.17 377.76 949.10 Z" />
</g>
<g id="#4a344e81">
<path fill="#4a344e" opacity="0.51" d=" M 382.77 950.08 C 384.24 949.44 385.33 949.78 386.03 951.08 C 384.75 951.42 383.66 951.09 382.77 950.08 Z" />
</g>
<g id="#4d2f5499">
<path fill="#4d2f54" opacity="0.60" d=" M 572.93 951.04 C 574.00 949.68 575.77 949.40 577.32 950.10 C 576.11 951.19 574.46 951.44 572.93 951.04 Z" />
</g>
<g id="#3c2c4065">
<path fill="#3c2c40" opacity="0.40" d=" M 386.87 950.92 C 388.40 950.34 390.08 950.80 391.23 951.95 C 389.68 952.47 387.95 952.22 386.87 950.92 Z" />
</g>
<g id="#492b5194">
<path fill="#492b51" opacity="0.58" d=" M 567.88 951.99 C 569.01 950.70 570.75 950.44 572.31 951.07 C 571.12 952.23 569.42 952.45 567.88 951.99 Z" />
</g>
<g id="#47314c80">
<path fill="#47314c" opacity="0.50" d=" M 392.76 952.04 C 394.30 951.46 396.02 951.71 397.18 952.96 C 395.63 953.48 393.91 953.23 392.76 952.04 Z" />
</g>
<g id="#4232456a">
<path fill="#423245" opacity="0.42" d=" M 563.69 952.85 C 564.66 951.78 565.81 951.53 567.15 952.10 C 566.18 953.18 565.02 953.43 563.69 952.85 Z" />
</g>
<g id="#402c4473">
<path fill="#402c44" opacity="0.45" d=" M 397.85 952.93 C 399.70 952.41 401.67 952.73 403.19 953.97 C 401.33 954.55 399.29 954.29 397.85 952.93 Z" />
</g>
<g id="#49314f88">
<path fill="#49314f" opacity="0.53" d=" M 556.80 953.93 C 558.00 952.70 559.74 952.48 561.32 953.10 C 560.08 954.24 558.35 954.45 556.80 953.93 Z" />
</g>
<g id="#3e2d436a">
<path fill="#3e2d43" opacity="0.42" d=" M 403.83 953.96 C 405.69 953.46 407.67 953.73 409.25 954.89 C 407.38 955.56 405.31 955.31 403.83 953.96 Z" />
</g>
<g id="#47334d7d">
<path fill="#47334d" opacity="0.49" d=" M 550.75 954.88 C 551.98 953.68 553.73 953.50 555.29 954.13 C 554.04 955.26 552.29 955.45 550.75 954.88 Z" />
</g>
<g id="#402f456f">
<path fill="#402f45" opacity="0.44" d=" M 410.80 955.05 C 412.67 954.46 414.68 954.70 416.27 955.89 C 414.40 956.52 412.35 956.30 410.80 955.05 Z" />
<path fill="#402f45" opacity="0.44" d=" M 543.71 955.88 C 545.30 954.70 547.31 954.46 549.19 955.05 C 547.62 956.31 545.57 956.52 543.71 955.88 Z" />
</g>
<g id="#412b4779">
<path fill="#412b47" opacity="0.47" d=" M 417.95 956.01 C 420.35 955.37 422.87 955.60 425.01 956.90 C 422.62 957.57 420.06 957.40 417.95 956.01 Z" />
</g>
<g id="#482f4e88">
<path fill="#482f4e" opacity="0.53" d=" M 534.90 956.90 C 536.76 955.58 539.08 955.34 541.22 956.16 C 539.29 957.30 537.03 957.47 534.90 956.90 Z" />
</g>
<g id="#472f4d87">
<path fill="#472f4d" opacity="0.53" d=" M 426.42 957.09 C 429.42 957.07 432.41 957.34 435.35 957.96 C 432.35 957.97 429.35 957.73 426.42 957.09 Z" />
</g>
<g id="#46314b7b">
<path fill="#46314b" opacity="0.48" d=" M 525.92 957.84 C 528.12 956.56 530.70 956.40 533.13 957.14 C 530.90 958.38 528.33 958.52 525.92 957.84 Z" />
</g>
<g id="#462e4c83">
<path fill="#462e4c" opacity="0.51" d=" M 436.52 958.09 C 440.16 957.96 443.79 958.25 447.37 958.95 C 443.72 959.09 440.09 958.83 436.52 958.09 Z" />
<path fill="#462e4c" opacity="0.51" d=" M 512.61 958.94 C 516.20 958.25 519.84 957.95 523.50 958.09 C 519.91 958.83 516.26 959.09 512.61 958.94 Z" />
</g>
<g id="#51365795">
<path fill="#513657" opacity="0.58" d=" M 452.78 959.32 C 457.65 958.70 462.56 959.04 467.36 960.00 L 454.49 960.00 L 452.78 959.32 Z" />
</g>
</svg>
