<?xml version="1.0" encoding="UTF-8" ?>
<!DOCTYPE svg PUBLIC "-//W3C//DTD SVG 1.1//EN" "http://www.w3.org/Graphics/SVG/1.1/DTD/svg11.dtd">
<svg width="1600pt" height="517pt" viewBox="0 0 1600 517" version="1.1" xmlns="http://www.w3.org/2000/svg">
<g id="#581668ff">
<path fill="#581668" opacity="1.00" d=" M 169.46 0.00 L 171.58 0.00 C 205.43 0.41 239.20 10.59 267.09 29.89 C 305.17 55.73 331.99 97.55 339.22 143.04 C 342.15 159.52 341.41 176.32 341.50 192.98 C 341.49 300.71 341.53 408.44 341.48 516.18 C 227.66 516.17 113.83 516.19 0.00 516.17 L 0.00 165.20 C 1.07 147.55 3.98 129.92 10.09 113.27 C 22.42 78.62 46.36 48.28 77.13 28.14 C 104.34 10.06 136.85 0.53 169.46 0.00 M 115.77 21.83 C 84.73 33.30 57.35 54.70 39.06 82.31 C 61.28 80.10 82.78 70.37 98.69 54.64 C 99.91 53.09 102.13 53.00 103.56 54.28 C 127.84 70.24 156.83 79.25 185.95 78.87 C 217.16 78.98 248.15 68.12 272.83 49.09 C 256.32 35.36 237.10 24.86 216.51 18.71 C 183.77 8.87 147.83 9.93 115.77 21.83 M 187.94 84.84 C 157.61 85.61 127.17 76.79 101.77 60.26 C 83.66 77.11 59.62 87.49 34.86 88.62 C 19.07 114.78 11.03 145.48 12.09 176.02 C 12.03 254.32 12.12 332.64 12.02 410.94 C 12.40 423.64 11.58 436.34 12.05 449.04 C 12.22 467.46 11.86 485.89 12.09 504.30 C 117.92 504.30 223.74 504.25 329.57 504.33 C 329.68 475.24 329.61 446.15 329.60 417.06 C 307.95 432.54 280.10 438.17 253.91 434.62 C 229.56 431.46 205.97 419.90 190.04 400.97 C 179.97 409.32 167.85 414.87 155.30 418.31 C 135.11 423.65 113.61 424.76 93.14 420.36 C 70.71 415.22 49.10 403.44 35.08 384.85 C 33.41 383.21 34.68 380.17 36.96 380.01 C 39.97 379.75 42.99 379.98 46.01 379.78 C 65.85 378.68 84.83 369.72 99.06 355.99 C 113.57 342.32 125.04 325.61 140.80 313.23 C 120.27 313.34 99.67 307.10 83.10 294.87 C 61.36 279.13 46.73 253.87 44.37 227.09 C 42.22 206.36 47.24 184.99 58.30 167.35 C 69.52 149.26 86.98 135.17 107.03 128.02 C 126.76 120.92 148.84 120.61 168.76 127.13 C 187.84 133.28 204.73 145.76 216.49 161.97 C 194.86 147.06 165.96 143.09 141.38 152.65 C 127.49 157.99 115.27 167.73 107.27 180.32 C 96.58 196.89 93.61 218.10 99.07 237.03 C 102.52 249.30 109.51 260.52 118.96 269.07 C 130.95 280.09 146.84 286.62 163.05 287.78 C 181.69 289.52 200.69 284.24 216.16 273.80 C 212.78 279.07 208.20 283.38 204.02 287.99 C 216.15 288.08 228.53 290.38 239.20 296.36 C 241.98 273.73 253.63 251.70 272.46 238.45 C 289.04 227.07 309.64 222.68 329.53 223.35 C 329.75 209.58 329.56 195.81 329.62 182.05 C 329.79 167.97 329.52 153.79 326.60 139.97 C 320.18 106.71 302.49 75.92 277.48 53.15 C 252.04 72.90 220.21 84.51 187.94 84.84 M 270.01 248.01 C 255.21 261.33 246.47 280.66 244.75 300.37 C 254.98 311.15 258.31 328.23 251.80 341.76 C 244.23 357.78 226.35 367.24 209.00 367.34 C 200.07 367.33 190.33 364.54 184.87 357.01 C 176.72 345.62 182.13 327.63 194.87 322.09 C 196.89 320.70 199.66 322.62 199.72 324.88 C 199.73 327.09 196.99 327.44 195.61 328.65 C 186.92 333.88 184.23 347.21 191.09 354.96 C 196.05 360.43 204.02 361.57 211.03 361.36 C 225.13 360.53 239.49 352.88 245.90 339.93 C 252.53 326.73 248.19 308.27 234.73 301.16 C 222.31 294.76 207.82 293.07 194.04 294.62 C 174.07 297.34 155.78 307.61 141.02 321.04 C 125.83 334.88 113.83 351.89 97.95 365.01 C 82.82 377.58 63.56 385.30 43.84 385.95 C 48.30 391.24 53.72 395.63 59.44 399.49 C 76.40 410.66 96.63 417.08 116.99 416.92 C 137.90 417.13 159.45 413.30 177.59 402.47 C 181.78 400.11 185.29 396.81 189.10 393.93 C 190.72 392.73 192.42 394.32 193.43 395.52 C 212.01 417.17 240.31 430.56 268.98 429.74 C 290.54 429.17 312.26 422.60 329.60 409.55 C 329.66 349.46 329.61 289.37 329.62 229.28 C 308.52 228.69 286.20 233.80 270.01 248.01 Z" />
<path fill="#581668" opacity="1.00" d=" M 283.08 150.74 C 284.58 162.53 294.41 172.27 306.15 173.89 C 294.41 174.92 284.87 184.88 283.11 196.34 C 281.54 184.51 271.19 174.24 259.07 173.88 C 271.21 172.99 281.89 162.92 283.08 150.74 Z" />
<path fill="#c882dc" opacity="1.00" d=" M 399.26 153.07 C 401.37 153.31 403.88 152.78 405.56 154.43 C 408.77 156.73 408.95 160.95 409.78 164.46 C 412.11 175.66 416.53 187.03 425.50 194.60 C 431.23 199.70 438.57 202.52 445.91 204.41 C 448.57 205.17 451.74 206.21 452.80 209.06 C 454.05 212.69 453.71 216.62 453.89 220.40 C 443.97 220.40 434.05 220.41 424.13 220.39 C 424.07 257.61 424.08 294.83 424.16 332.05 C 424.17 338.23 425.52 346.39 432.43 348.35 C 442.80 350.77 452.36 344.28 460.01 338.06 C 462.16 341.05 464.34 344.02 466.54 346.98 C 457.20 358.81 444.34 368.47 429.42 371.71 C 421.40 373.43 411.74 372.52 406.10 365.90 C 400.40 358.99 399.32 349.60 399.24 340.95 C 399.24 278.32 399.21 215.69 399.26 153.07 Z" />
<path fill="#c882dc" opacity="1.00" d=" M 761.45 153.74 C 765.26 153.15 769.82 152.33 773.05 155.02 C 775.19 156.64 776.19 159.34 776.21 161.97 C 776.39 197.39 775.97 232.84 776.42 268.26 C 782.28 252.77 793.50 238.77 808.72 231.71 C 818.49 227.08 829.94 226.78 840.23 229.83 C 848.07 232.28 854.98 237.75 859.00 244.95 C 864.57 254.89 865.31 267.35 861.15 277.95 C 855.32 293.75 839.66 305.18 822.93 306.44 C 834.31 322.70 841.28 341.63 846.04 360.79 C 849.06 373.64 851.32 387.08 858.50 398.42 C 866.37 411.20 881.08 419.13 895.96 419.68 C 902.60 420.05 909.19 418.18 914.88 414.78 C 916.24 417.54 917.62 420.30 919.01 423.06 C 911.51 429.54 901.80 433.29 891.90 433.58 C 869.65 434.34 847.62 421.63 837.08 402.03 C 830.25 390.34 828.29 376.79 825.02 363.87 C 819.93 342.42 810.96 321.40 796.18 304.79 C 793.46 304.00 790.64 303.41 788.14 302.04 C 784.92 300.10 784.94 294.96 787.71 292.64 C 791.51 291.27 795.27 293.73 799.02 294.17 C 808.51 295.21 819.08 294.97 827.04 288.97 C 836.58 282.39 841.68 269.31 837.63 258.21 C 835.85 253.24 831.93 248.83 826.64 247.62 C 816.69 245.33 805.82 248.57 798.31 255.39 C 790.03 262.76 784.89 272.98 781.64 283.43 C 776.63 299.52 775.68 316.56 776.44 333.30 C 776.88 339.56 777.63 345.95 780.31 351.69 C 782.28 356.20 785.41 360.04 788.34 363.93 C 786.77 365.49 785.75 368.47 783.09 368.11 C 767.68 368.14 752.27 368.11 736.86 368.11 C 735.80 365.26 734.81 362.37 733.88 359.48 C 738.88 358.12 744.89 357.67 748.24 353.18 C 751.04 348.68 750.86 343.10 751.19 338.00 C 751.22 286.66 751.18 235.31 751.21 183.97 C 751.41 181.11 750.39 177.33 747.02 176.96 C 742.54 176.59 738.03 176.91 733.54 176.83 C 732.65 174.40 731.82 171.95 731.11 169.46 C 739.88 162.07 750.18 156.20 761.45 153.74 Z" />
<path fill="#c882dc" opacity="1.00" d=" M 1113.22 153.08 C 1116.86 152.61 1120.81 154.07 1122.11 157.77 C 1123.90 163.82 1124.66 170.17 1127.08 176.05 C 1131.01 187.78 1140.22 197.74 1151.95 201.92 C 1156.40 204.02 1161.91 203.92 1165.70 207.31 C 1168.47 211.01 1167.44 216.05 1167.88 220.38 C 1157.96 220.41 1148.03 220.41 1138.11 220.39 C 1138.07 249.59 1138.11 278.79 1138.10 307.99 C 1138.21 317.02 1137.86 326.07 1138.29 335.09 C 1138.57 340.44 1140.65 346.87 1146.46 348.37 C 1156.83 350.75 1166.34 344.25 1174.00 338.06 C 1176.13 341.06 1178.30 344.03 1180.52 346.97 C 1174.06 355.10 1166.13 362.16 1156.81 366.86 C 1148.19 371.25 1137.99 374.17 1128.43 371.32 C 1122.84 369.71 1118.54 365.17 1116.41 359.87 C 1112.53 350.74 1113.27 340.60 1113.22 330.92 C 1113.22 271.64 1113.21 212.36 1113.22 153.08 Z" />
<path fill="#c882dc" opacity="1.00" d=" M 1327.12 155.40 C 1331.61 153.91 1336.39 152.74 1341.15 153.35 C 1345.12 153.97 1347.88 157.97 1347.64 161.89 C 1347.71 222.94 1347.63 283.99 1347.68 345.03 C 1347.60 348.46 1349.34 352.33 1352.92 353.26 C 1359.08 354.76 1365.03 351.49 1369.80 347.88 C 1371.49 350.29 1373.23 352.68 1374.99 355.05 C 1367.74 362.92 1358.76 369.98 1348.03 372.08 C 1340.34 373.40 1330.84 371.44 1326.83 364.06 C 1322.41 355.78 1322.78 346.04 1322.74 336.94 C 1322.74 285.60 1322.75 234.25 1322.74 182.91 C 1322.98 180.40 1321.74 177.44 1318.96 177.08 C 1314.37 176.46 1309.72 177.00 1305.12 176.76 C 1304.34 174.40 1303.53 172.06 1302.67 169.73 C 1309.74 163.37 1318.15 158.54 1327.12 155.40 Z" />
<path fill="#c882dc" opacity="1.00" d=" M 1205.69 251.65 C 1217.35 237.27 1236.33 227.55 1255.09 231.37 C 1270.41 234.88 1285.19 244.68 1291.40 259.57 C 1295.93 269.38 1296.47 280.37 1296.19 291.00 C 1296.24 309.22 1296.20 327.44 1296.47 345.66 C 1296.47 364.39 1300.54 383.95 1311.67 399.36 C 1321.48 412.94 1338.58 419.48 1354.95 419.38 C 1360.41 419.26 1366.05 417.88 1370.27 414.23 C 1371.63 416.97 1373.03 419.69 1374.50 422.38 C 1361.38 434.37 1341.65 436.41 1325.24 430.89 C 1309.87 426.06 1297.12 414.77 1289.05 400.99 C 1279.64 384.94 1274.89 366.49 1273.05 348.09 C 1268.84 353.77 1264.42 359.41 1258.77 363.74 C 1251.46 369.50 1242.41 373.46 1232.99 373.36 C 1222.30 373.22 1210.97 371.48 1202.30 364.75 C 1192.36 357.62 1187.11 345.12 1187.56 333.06 C 1188.20 320.24 1194.79 307.87 1205.11 300.23 C 1216.30 291.57 1231.26 289.20 1245.03 291.08 C 1251.69 292.16 1258.78 293.49 1264.17 297.85 C 1267.73 300.45 1267.21 307.07 1262.98 308.60 C 1259.39 308.62 1256.43 306.01 1252.90 305.63 C 1243.62 304.62 1233.46 305.12 1225.54 310.58 C 1219.09 314.72 1214.81 321.63 1213.00 328.98 C 1211.11 336.55 1214.29 344.89 1220.33 349.71 C 1226.21 354.72 1234.40 356.37 1241.93 355.17 C 1255.54 353.15 1267.08 343.09 1273.00 331.00 C 1273.39 318.00 1273.28 304.97 1273.20 291.96 C 1272.87 285.15 1273.08 278.06 1270.25 271.70 C 1266.35 262.22 1257.57 255.42 1247.91 252.55 C 1238.86 249.90 1228.75 251.66 1221.00 256.98 C 1215.98 260.49 1210.75 264.35 1208.14 270.08 C 1207.33 272.01 1205.83 273.45 1204.13 274.60 C 1201.07 273.62 1197.60 271.67 1197.52 268.03 C 1197.78 261.71 1201.93 256.43 1205.69 251.65 Z" />
<path fill="#c882dc" opacity="1.00" d=" M 510.46 235.81 C 523.57 233.39 537.56 233.99 550.01 239.01 C 557.56 242.07 565.05 247.50 567.18 255.77 C 568.66 262.47 567.75 269.97 563.56 275.57 C 560.20 280.35 554.78 283.58 548.96 284.21 C 546.27 284.46 543.19 284.79 540.94 283.00 C 539.47 280.74 540.90 278.08 541.97 275.99 C 544.80 270.91 544.90 264.58 543.10 259.14 C 540.68 252.47 533.83 248.40 527.04 247.48 C 519.86 246.62 511.86 247.39 506.10 252.19 C 500.30 256.85 498.30 265.22 500.62 272.17 C 502.34 277.58 506.87 281.48 511.42 284.57 C 525.30 292.99 541.27 297.27 554.97 306.04 C 561.40 310.49 567.86 316.06 570.10 323.86 C 573.26 335.28 570.25 348.38 561.91 356.93 C 553.09 366.04 540.46 370.46 528.03 371.49 C 515.13 372.63 501.48 371.52 489.97 365.11 C 482.39 360.91 475.98 353.80 474.31 345.11 C 472.95 338.86 473.65 331.82 477.68 326.66 C 482.07 320.74 489.82 318.09 497.00 318.71 C 498.45 318.96 500.64 319.17 500.89 321.02 C 501.18 324.03 499.21 326.60 498.58 329.44 C 496.94 336.75 497.71 345.32 503.18 350.91 C 512.40 360.48 529.05 361.72 539.64 353.72 C 547.03 348.33 549.96 336.99 544.85 329.14 C 540.02 322.63 532.38 319.19 525.26 315.82 C 511.77 309.48 496.90 304.59 486.26 293.68 C 474.24 282.34 473.38 260.93 485.05 249.04 C 491.77 241.98 501.01 237.75 510.46 235.81 Z" />
<path fill="#c882dc" opacity="1.00" d=" M 605.14 235.09 C 608.66 234.58 612.74 233.83 615.84 236.08 C 618.45 237.79 619.41 241.04 619.29 244.02 C 619.27 270.67 619.28 297.32 619.28 323.97 C 619.36 332.62 621.03 342.14 627.45 348.46 C 634.71 355.13 645.78 355.50 654.79 352.72 C 664.50 349.67 671.48 341.26 675.37 332.16 C 681.53 318.01 681.77 302.24 681.35 287.08 C 681.08 277.12 680.75 266.95 677.51 257.43 C 675.57 251.62 671.78 246.73 668.07 241.96 C 669.28 240.60 670.20 238.83 671.85 237.95 C 682.31 236.75 692.81 235.79 703.27 234.54 C 703.27 271.03 703.28 307.52 703.26 344.02 C 703.12 347.25 703.79 351.33 707.24 352.62 C 713.02 354.65 718.94 351.52 723.78 348.55 C 725.39 350.83 727.04 353.10 728.74 355.32 C 722.67 362.61 714.71 368.66 705.46 371.19 C 698.64 372.73 690.46 371.91 685.47 366.52 C 680.67 361.32 679.83 353.89 679.52 347.13 C 672.63 360.81 658.12 369.50 643.19 371.40 C 633.59 372.51 623.38 371.91 614.70 367.28 C 606.99 363.24 601.18 356.03 598.34 347.85 C 595.92 341.18 595.27 334.02 595.33 326.97 C 595.32 305.65 595.34 284.32 595.32 263.00 C 595.47 260.71 594.42 257.87 591.90 257.43 C 587.50 256.93 583.06 257.29 578.66 257.24 C 577.78 254.94 576.96 252.62 576.16 250.30 C 584.11 242.63 594.29 237.20 605.14 235.09 Z" />
<path fill="#c882dc" opacity="1.00" d=" M 879.91 251.09 C 887.96 243.44 898.08 237.90 908.93 235.43 C 912.93 234.72 917.44 233.69 921.21 235.77 C 924.16 237.35 925.53 240.82 925.42 244.05 C 925.45 270.04 925.39 296.04 925.45 322.04 C 925.66 331.11 927.43 341.16 934.39 347.61 C 941.19 353.85 951.31 354.20 959.93 352.52 C 969.85 350.68 978.30 343.79 983.08 335.04 C 989.94 322.94 990.99 308.61 990.61 294.99 C 990.27 282.06 990.46 268.65 985.55 256.45 C 983.44 251.21 979.81 246.82 976.49 242.32 C 977.94 240.88 978.81 238.31 981.11 238.07 C 991.94 236.77 1002.82 235.94 1013.64 234.49 C 1013.80 283.65 1013.67 332.82 1013.70 381.98 C 1013.82 414.87 1001.44 447.36 980.68 472.71 C 963.57 493.60 939.55 509.07 912.94 514.36 C 888.37 519.48 862.44 516.15 839.38 506.51 C 824.76 500.50 811.46 491.71 799.21 481.82 C 793.02 476.65 787.21 470.54 784.32 462.88 C 781.19 454.73 782.23 445.52 785.50 437.59 C 786.17 435.69 787.82 433.88 790.04 434.47 C 793.30 437.72 794.29 442.44 796.65 446.30 C 811.80 473.86 840.32 492.83 870.89 498.92 C 891.59 503.05 913.93 500.81 932.56 490.53 C 956.53 477.63 974.09 454.55 982.53 428.90 C 987.29 414.82 988.98 399.87 988.87 385.06 C 988.83 372.06 988.92 359.06 988.83 346.07 C 980.79 360.85 964.62 370.24 948.07 371.68 C 940.26 372.25 932.18 372.00 924.80 369.14 C 917.36 366.36 910.95 361.00 906.86 354.20 C 901.93 346.09 900.21 336.45 900.18 327.07 C 900.14 306.38 900.18 285.69 900.16 265.00 C 900.24 262.48 899.38 259.25 896.52 258.71 C 891.87 258.20 887.16 258.60 882.50 258.55 C 881.55 256.09 880.70 253.60 879.91 251.09 Z" />
<path fill="#c882dc" opacity="1.00" d=" M 1432.12 235.11 C 1441.25 234.02 1450.68 234.11 1459.60 236.57 C 1471.04 239.81 1481.15 248.39 1485.06 259.77 C 1491.49 276.84 1484.21 297.19 1469.67 307.72 C 1456.39 317.80 1438.27 319.32 1422.49 315.30 C 1418.18 314.15 1413.71 312.69 1410.39 309.59 C 1407.37 306.94 1407.91 301.44 1411.33 299.41 C 1415.14 298.69 1418.26 301.78 1421.95 302.18 C 1431.45 303.30 1441.91 302.64 1449.94 296.88 C 1461.06 289.32 1465.81 273.38 1459.82 261.18 C 1457.17 255.49 1452.45 250.54 1446.27 248.84 C 1436.15 245.91 1424.30 248.19 1416.73 255.75 C 1408.33 263.93 1404.71 275.66 1403.09 286.99 C 1401.76 297.59 1401.37 308.38 1403.01 318.98 C 1404.54 328.27 1408.02 337.55 1414.56 344.51 C 1419.88 350.17 1427.42 353.38 1435.08 354.24 C 1450.06 355.77 1465.99 351.50 1477.17 341.15 C 1478.73 339.83 1480.61 337.60 1482.90 338.85 C 1485.99 340.33 1489.28 344.20 1487.70 347.72 C 1476.32 362.16 1458.40 371.02 1440.06 371.74 C 1425.52 372.75 1410.26 369.48 1398.67 360.30 C 1384.72 349.58 1376.99 332.35 1375.41 315.10 C 1373.46 296.56 1376.36 276.71 1387.27 261.20 C 1397.38 246.40 1414.43 237.07 1432.12 235.11 Z" />
<path fill="#c882dc" opacity="1.00" d=" M 1543.17 235.12 C 1554.11 233.74 1565.47 234.39 1575.94 238.00 C 1583.15 240.64 1590.56 244.70 1594.19 251.81 C 1598.45 260.46 1596.56 271.84 1589.55 278.52 C 1584.79 283.18 1577.52 285.41 1571.04 283.90 C 1567.88 282.98 1568.62 279.19 1569.99 277.04 C 1573.00 272.21 1573.26 266.23 1572.16 260.79 C 1570.36 253.46 1563.24 248.65 1556.08 247.56 C 1548.45 246.52 1539.74 247.34 1533.90 252.88 C 1527.16 258.87 1526.39 270.11 1531.78 277.22 C 1536.05 282.88 1542.46 286.31 1548.74 289.31 C 1562.00 295.89 1576.66 300.19 1588.32 309.63 C 1593.78 314.00 1598.37 319.95 1599.38 327.05 C 1601.27 338.49 1597.50 350.93 1588.65 358.63 C 1576.18 370.11 1558.22 372.72 1541.90 371.66 C 1529.95 370.79 1517.42 366.90 1509.25 357.71 C 1503.02 350.96 1500.70 340.89 1503.30 332.11 C 1506.48 322.30 1518.05 316.61 1527.82 319.26 C 1530.37 319.94 1529.57 323.10 1528.75 324.85 C 1524.98 333.37 1525.21 344.86 1532.40 351.56 C 1539.30 358.40 1549.97 360.26 1559.21 358.06 C 1566.55 356.25 1573.35 350.78 1575.25 343.24 C 1576.35 338.20 1576.18 332.37 1572.71 328.24 C 1567.18 321.60 1558.92 318.31 1551.32 314.68 C 1538.26 308.73 1524.06 303.65 1514.01 292.93 C 1502.51 281.18 1502.16 259.75 1514.33 248.33 C 1521.97 240.65 1532.57 236.54 1543.17 235.12 Z" />
<path fill="#581668" opacity="1.00" d=" M 170.93 448.99 C 171.84 457.18 178.83 463.94 186.97 464.89 C 178.79 465.89 171.66 472.67 170.95 481.00 C 169.68 472.59 162.63 465.55 154.06 464.84 C 162.63 464.42 169.54 457.22 170.93 448.99 Z" />
</g>
<g id="#fffefdff">
<path fill="#fffefd" opacity="1.00" d=" M 115.77 21.83 C 147.83 9.93 183.77 8.87 216.51 18.71 C 237.10 24.86 256.32 35.36 272.83 49.09 C 248.15 68.12 217.16 78.98 185.95 78.87 C 156.83 79.25 127.84 70.24 103.56 54.28 C 102.13 53.00 99.91 53.09 98.69 54.64 C 82.78 70.37 61.28 80.10 39.06 82.31 C 57.35 54.70 84.73 33.30 115.77 21.83 Z" />
<path fill="#fffefd" opacity="1.00" d=" M 270.01 248.01 C 286.20 233.80 308.52 228.69 329.62 229.28 C 329.61 289.37 329.66 349.46 329.60 409.55 C 312.26 422.60 290.54 429.17 268.98 429.74 C 240.31 430.56 212.01 417.17 193.43 395.52 C 192.42 394.32 190.72 392.73 189.10 393.93 C 185.29 396.81 181.78 400.11 177.59 402.47 C 159.45 413.30 137.90 417.13 116.99 416.92 C 96.63 417.08 76.40 410.66 59.44 399.49 C 53.72 395.63 48.30 391.24 43.84 385.95 C 63.56 385.30 82.82 377.58 97.95 365.01 C 113.83 351.89 125.83 334.88 141.02 321.04 C 155.78 307.61 174.07 297.34 194.04 294.62 C 207.82 293.07 222.31 294.76 234.73 301.16 C 248.19 308.27 252.53 326.73 245.90 339.93 C 239.49 352.88 225.13 360.53 211.03 361.36 C 204.02 361.57 196.05 360.43 191.09 354.96 C 184.23 347.21 186.92 333.88 195.61 328.65 C 196.99 327.44 199.73 327.09 199.72 324.88 C 199.66 322.62 196.89 320.70 194.87 322.09 C 182.13 327.63 176.72 345.62 184.87 357.01 C 190.33 364.54 200.07 367.33 209.00 367.34 C 226.35 367.24 244.23 357.78 251.80 341.76 C 258.31 328.23 254.98 311.15 244.75 300.37 C 246.47 280.66 255.21 261.33 270.01 248.01 Z" />
</g>
<g id="#edc8e0ff">
<path fill="#edc8e0" opacity="1.00" d=" M 187.94 84.84 C 220.21 84.51 252.04 72.90 277.48 53.15 C 302.49 75.92 320.18 106.71 326.60 139.97 C 329.52 153.79 329.79 167.97 329.62 182.05 C 329.56 195.81 329.75 209.58 329.53 223.35 C 309.64 222.68 289.04 227.07 272.46 238.45 C 253.63 251.70 241.98 273.73 239.20 296.36 C 228.53 290.38 216.15 288.08 204.02 287.99 C 208.20 283.38 212.78 279.07 216.16 273.80 C 200.69 284.24 181.69 289.52 163.05 287.78 C 146.84 286.62 130.95 280.09 118.96 269.07 C 109.51 260.52 102.52 249.30 99.07 237.03 C 93.61 218.10 96.58 196.89 107.27 180.32 C 115.27 167.73 127.49 157.99 141.38 152.65 C 165.96 143.09 194.86 147.06 216.49 161.97 C 204.73 145.76 187.84 133.28 168.76 127.13 C 148.84 120.61 126.76 120.92 107.03 128.02 C 86.98 135.17 69.52 149.26 58.30 167.35 C 47.24 184.99 42.22 206.36 44.37 227.09 C 46.73 253.87 61.36 279.13 83.10 294.87 C 99.67 307.10 120.27 313.34 140.80 313.23 C 125.04 325.61 113.57 342.32 99.06 355.99 C 84.83 369.72 65.85 378.68 46.01 379.78 C 42.99 379.98 39.97 379.75 36.96 380.01 C 34.68 380.17 33.41 383.21 35.08 384.85 C 49.10 403.44 70.71 415.22 93.14 420.36 C 113.61 424.76 135.11 423.65 155.30 418.31 C 167.85 414.87 179.97 409.32 190.04 400.97 C 205.97 419.90 229.56 431.46 253.91 434.62 C 280.10 438.17 307.95 432.54 329.60 417.06 C 329.61 446.15 329.68 475.24 329.57 504.33 C 223.74 504.25 117.92 504.30 12.09 504.30 C 11.86 485.89 12.22 467.46 12.05 449.04 C 11.58 436.34 12.40 423.64 12.02 410.94 C 12.12 332.64 12.03 254.32 12.09 176.02 C 11.03 145.48 19.07 114.78 34.86 88.62 C 59.62 87.49 83.66 77.11 101.77 60.26 C 127.17 76.79 157.61 85.61 187.94 84.84 M 283.08 150.74 C 281.89 162.92 271.21 172.99 259.07 173.88 C 271.19 174.24 281.54 184.51 283.11 196.34 C 284.87 184.88 294.41 174.92 306.15 173.89 C 294.41 172.27 284.58 162.53 283.08 150.74 M 170.93 448.99 C 169.54 457.22 162.63 464.42 154.06 464.84 C 162.63 465.55 169.68 472.59 170.95 481.00 C 171.66 472.67 178.79 465.89 186.97 464.89 C 178.83 463.94 171.84 457.18 170.93 448.99 Z" />
</g>
</svg>
